<?xml version="1.0" encoding="utf-8" ?><svg xmlns="http://www.w3.org/2000/svg" xmlns:xlink="http://www.w3.org/1999/xlink" width="1248" height="832" viewBox="0 0 1248 832"><path fill="#282728" d="M733.994 375.133C762.449 372.514 787.628 393.489 790.2 421.955C792.772 450.421 771.761 475.573 743.298 478.099C714.9 480.62 689.825 459.662 687.259 431.262C684.693 402.861 705.604 377.746 733.994 375.133ZM766.471 398.054C762.87 403.021 759.837 407.348 756.556 412.553C751.892 419.953 750.903 429.797 743.49 434.099C733.761 440.101 728.22 441.033 716.807 448.885C713.587 451.879 711.845 453.006 708.237 455.36C725.08 469.87 750.18 471.26 767.55 456.896C775.784 450.17 780.897 440.358 781.692 429.754C782.603 418.937 778.899 407.482 771.474 399.548C733.511 358.987 668.324 410.714 707.786 454.859C712.388 447.969 716.859 441.247 721.366 434.176C723.514 431.465 730.276 416.23 732.633 415.108C744.284 409.564 751.604 402.312 760.762 393.525C762.75 394.885 764.612 396.511 766.471 398.054ZM738.746 429.558C740.577 428.368 741.656 427.89 742.575 425.866C742.262 423.015 740.516 422.687 740.599 420.399C742.335 419.7 743.847 419.463 744.766 418.16C743.481 416.722 742.623 416.737 740.61 416.723C737.652 419.136 731.808 423.297 732.634 427.546C734.57 429.717 735.779 429.712 738.746 429.558Z"/><path fill="#B0AFAF" fill-opacity="0.96470588" d="M736.466 388.475L738.233 389.787C739.609 393.134 739.146 395.389 738.687 398.88C735.843 396.466 736.424 391.901 736.466 388.475Z"/><path fill="#8C888E" fill-opacity="0.97647059" d="M766.867 425.067C769.856 424.993 773.24 424.739 776.098 425.454L776.548 426.207L775.265 427.017C774.134 427.019 773.002 427.008 771.871 426.984C770.095 426.94 766.688 426.93 765.565 425.739L766.867 425.067Z"/><path fill="#B0AFAF" fill-opacity="0.98431373" d="M700.269 424.364C703.677 424.321 707.78 424.211 710.225 426.664C706.233 427.246 702.41 428.374 700.269 424.364Z"/><path fill="#B0AFAF" fill-opacity="0.90980393" d="M712.077 399.827C715.689 400.838 717.411 403.234 719.571 406.127C715.813 405.315 713.769 403.097 712.077 399.827Z"/><path fill="#B0AFAF" fill-opacity="0.89019608" d="M759.665 445.293C763.515 446.045 764.729 447.799 767.167 450.676C763.166 449.765 762.177 448.338 759.665 445.293Z"/><path fill="#B0AFAF" d="M716.807 448.885C720.401 438.855 734.014 434.816 743.49 434.099C733.761 440.101 728.22 441.033 716.807 448.885Z"/><path fill="#282728" d="M312.306 366.274L331.321 366.286L325.754 384.014C318.781 408.386 311.306 432.611 303.333 456.673C297.964 456.784 292.31 456.705 286.916 456.717C279.033 436.103 273.736 416.325 266.59 395.902C260.403 416.312 253.811 436.597 246.818 456.745C241.091 456.795 235.363 456.794 229.637 456.739C219.684 426.678 209.975 396.536 200.511 366.317L220.119 366.248C225.905 387.764 233.063 409.096 238.939 430.733C241.668 423.864 244.229 414.377 246.45 407.139C250.641 393.517 254.951 379.933 259.382 366.387L274.078 366.391L294.503 430.258C300.597 409.176 306.365 387.467 312.306 366.274Z"/><path fill="#B0AFAF" d="M878.788 383.295C883.902 383.077 890.383 383.307 895.602 383.357C887.458 406.069 879.709 433.077 871.983 456.506C867.63 456.677 862.54 456.58 858.123 456.591C853.162 440.988 848.379 425.329 843.778 409.617C839.427 424.46 832.926 442.334 829.306 456.622L815.094 456.579C814.267 452.122 811.333 443.712 809.854 439.122C806.435 428.415 802.943 417.732 799.376 407.074C797.14 400.512 793.826 391.98 792.224 385.423C794.437 383.874 805.701 384.09 808.799 384.036C810.457 388.252 812.163 395.083 813.507 399.688L821.026 424.775C821.638 426.673 822.215 429.713 823.497 430.718C823.778 429.985 824.045 429.398 824.211 428.631C828.601 417.054 834.129 395.953 838.077 383.347L850.307 383.501C851.804 387.584 853.696 395.122 854.984 399.54C858.215 410.61 861.501 421.664 864.843 432.702C869.64 417.354 875.243 398.874 878.788 383.295Z"/><path fill="#B0AFAF" d="M975.015 383.299C985.981 383.319 1012.97 382.061 1021.71 385.547C1044.03 394.446 1042.52 419.771 1020.76 429.407C1027.3 438.346 1033.71 447.378 1040 456.499L1032.41 456.463L1020.91 456.528C1016.59 451.703 1008.27 438.302 1004.37 432.252C1000.18 432.122 995.623 432.221 991.396 432.23L991.502 456.447L975.371 456.478C974.775 432.671 975.122 407.293 975.015 383.299ZM991.458 418.853C997.731 418.881 1009.6 419.437 1015.15 417.105C1033.69 404.124 1010.98 393.964 996.239 395.834C994.21 396.002 992.822 395.738 991.465 396.812C991.268 404.27 991.569 411.488 991.458 418.853Z"/><path fill="#282728" d="M586.239 383.345C591.598 383.225 597.225 383.314 602.607 383.322L602.681 456.477L586.319 456.504C586.26 446.547 586.313 436.59 586.477 426.635L553.985 426.602C554.068 436.563 554.04 446.525 553.902 456.485L538.108 456.519L538.028 383.332L553.98 383.391L554.472 413.273L586.263 413.231L586.239 383.345Z"/><path fill="#282728" d="M353.883 383.413L368.711 383.433C379.588 407.716 390.294 432.075 400.829 456.508L383.868 456.532C381.506 451.378 379.124 445.086 376.959 439.765L371.262 439.641L345.754 439.59L338.863 456.518L322.4 456.514C333.768 432.415 343.495 407.922 353.883 383.413ZM350.626 427.219L361.225 427.132L371.734 427.167C369.231 420.387 364.862 407.652 361.023 402.11C357.484 410.389 353.767 418.797 350.626 427.219Z"/><path fill="#282728" d="M712.59 356.641C728.691 353.415 744.67 349.004 760.598 345.001C767.81 343.188 776.992 339.634 784.385 339.815C790.716 339.969 838.029 354.198 847.214 357.121C840.598 358.631 834.011 360.265 827.455 362.02C821.379 359.402 814.558 358.627 808.076 357.477C794.892 355.139 786.2 353.274 773.941 359.695C794.224 369.842 804.122 362.241 823.77 361.106C819.946 362.591 775.689 378.224 775.945 377.937C784.522 378.329 797.431 371.81 806.363 369.25L806.264 379.924C798.326 381.585 785.487 385.891 777.607 388.686C765.98 380.195 759.555 377.743 745.46 374.948C745.382 372.739 744.857 366.815 746.066 365.184L747.464 365.026C751.062 367.051 774.474 372.631 778.85 373.162C773.136 369.989 754.118 366.005 747.514 364.656C742.271 362.228 720.98 358.963 712.918 356.734L712.59 356.641Z"/><path fill="#B0AFAF" d="M904.247 383.413L958.512 383.349L958.567 396.46C946.766 395.861 932.147 396.256 920.263 396.378C920.416 401.981 920.527 407.585 920.595 413.19C931.281 412.926 942.303 412.928 953.01 412.865L953.078 425.775C943.322 425.732 933.428 425.879 923.661 425.948C922.334 425.943 922.383 425.872 921.2 426.434C919.882 430.072 920.576 439.059 920.748 443.216L960.572 443.022L960.521 456.527C941.929 456.311 922.939 456.503 904.317 456.51C904.549 432.145 904.526 407.778 904.247 383.413Z"/><path fill="#B0AFAF" d="M617.961 365.771L691.498 365.658L691.545 381.542C682.322 381.449 673.098 381.442 663.874 381.522C663.392 397.503 663.632 414.426 663.608 430.476C663.561 439.158 663.702 447.841 664.03 456.517L644.824 456.543C644.988 431.534 644.985 406.524 644.817 381.514L617.945 381.504C618.123 376.566 617.972 370.775 617.961 365.771Z"/><path fill="#282728" d="M495.026 382.4C507.753 381.456 516.653 385.969 526.201 393.604C523.203 396.889 520.206 400.558 517.319 403.969C503.787 395.061 486.822 390.492 477.759 408.184C474.497 414.49 473.918 421.845 476.152 428.584C480.133 440.409 491.533 445.746 503.551 443.435C508.479 442.487 512.571 437.899 517.156 436.494C520.177 439.632 523.724 442.923 526.886 445.976C519.343 451.925 512.86 456.404 503.109 457.92C492.324 459.571 481.331 456.76 472.661 450.135C455.65 437.245 453.202 413.367 466.227 396.446C473.293 387.266 483.769 383.587 495.026 382.4Z"/><path fill="#282728" d="M394.409 383.404L454.585 383.378L454.562 397.103C447.286 396.945 440.008 396.863 432.731 396.858L432.689 435.352L432.646 456.487L416.88 456.496L417.02 396.837C409.791 396.606 401.705 396.848 394.414 396.914L394.409 383.404Z"/><path fill="#B0AFAF" d="M1041.55 440.911C1048.64 440.484 1096.21 439.82 1098.61 441.68L1098.59 443.328C1091.78 443.653 1045.77 444.394 1041.99 442.419L1041.55 440.911Z"/><path fill="#282728" d="M826.525 366.729C827.449 368.336 829.537 375.697 829.71 377.721C830.099 382.279 829.885 383.26 827.154 386.616C819.777 382.043 824.299 373.322 826.525 366.729Z"/><path fill="#B0AFAF" fill-opacity="0.96862745" d="M1045.35 454.313C1047.42 454.68 1051.58 455.214 1053.45 455.75C1060.45 457.76 1078.16 457.084 1083.36 461.289C1076.88 461.776 1049.89 457.449 1045.35 454.313Z"/><path fill="#B0AFAF" fill-opacity="0.11372549" d="M747.514 364.656C754.118 366.005 773.136 369.989 778.85 373.162C774.474 372.631 751.062 367.051 747.464 365.026L747.514 364.656Z"/><path fill="#8C888E" fill-opacity="0.51372552" d="M145.628 442.367L145.423 441.973L146.315 441.41C152.561 441.044 197.866 440.935 202.272 441.993L166.186 441.791C162.055 441.783 149.231 441.746 145.628 442.367Z"/><path fill="#69676C" fill-opacity="0.77254903" d="M145.628 442.367C149.231 441.746 162.055 441.783 166.186 441.791L202.272 441.993C197.071 443.404 153.045 442.762 145.628 442.367Z"/><path fill="#FCFAFD" fill-opacity="0.011764706" d="M821.026 424.775C822.921 424.348 822.273 424.213 823.832 424.904L824.211 428.631C824.045 429.398 823.778 429.985 823.497 430.718C822.215 429.713 821.638 426.673 821.026 424.775Z"/></svg>