<svg viewBox="180.224 358.4 1165.3120000000001 249.856" xmlns="http://www.w3.org/2000/svg" style="max-height: 500px" width="1165.3120000000001" height="249.856">

  
  <text fill="#111111" letter-spacing="-8" font-weight="800" font-size="150" font-family="Arial, Helvetica, sans-serif" y="560" x="220">WATCH</text>

  
  <text fill="#8A8A8A" letter-spacing="-8" font-weight="800" font-size="150" font-family="Arial, Helvetica, sans-serif" y="560" x="735">T</text>

  
  <circle stroke-width="15" stroke="#111111" fill="#ffffff" r="62" cy="515" cx="890"/>

  
  <line stroke-linecap="round" stroke-width="6" stroke="#111111" y2="478" x2="890" y1="467" x1="890"/>
  <line stroke-linecap="round" stroke-width="6" stroke="#111111" y2="563" x2="890" y1="552" x1="890"/>
  <line stroke-linecap="round" stroke-width="6" stroke="#111111" y2="515" x2="853" y1="515" x1="842"/>
  <line stroke-linecap="round" stroke-width="6" stroke="#111111" y2="515" x2="938" y1="515" x1="927"/>

  
  <line stroke-linecap="round" stroke-width="8" stroke="#111111" y2="498" x2="870" y1="515" x1="890"/>
  <line stroke-linecap="round" stroke-width="8" stroke="#111111" y2="532" x2="915" y1="515" x1="890"/>
  <circle fill="#111111" r="7" cy="515" cx="890"/>

  
  <polygon fill="#111111" points="815,413 890,385 965,413 890,440"/>

  <path stroke-linecap="round" stroke-width="9" stroke="#111111" fill="none" d="M840 430 C865 448, 915 448, 940 430"/>

  
  <line stroke-linecap="round" stroke-width="5" stroke="#111111" y2="455" x2="950" y1="415" x1="950"/>
  <circle fill="#111111" r="5" cy="458" cx="950"/>

  
  <text fill="#8A8A8A" letter-spacing="-8" font-weight="800" font-size="150" font-family="Arial, Helvetica, sans-serif" y="560" x="965">WER</text>
</svg>